<svg xmlns="http://www.w3.org/2000/svg"  viewBox="0 0 64 64" width="256px" height="256px"><linearGradient id="jYsH6Bv5nVhUgDQcd32aya" x1="48" x2="48" y1="53.681" y2="12.426" gradientTransform="matrix(1 0 0 -1 0 64)" gradientUnits="userSpaceOnUse"><stop offset="0" stop-color="#6dc7ff"/><stop offset="1" stop-color="#e6abff"/></linearGradient><path fill="url(#jYsH6Bv5nVhUgDQcd32aya)" d="M51,41.83v4.79c0,0.9-0.25,1.79-0.71,2.57l-1.43,2.38c-0.39,0.65-1.33,0.65-1.72,0l-1.43-2.38	C45.25,48.41,45,47.52,45,46.62v-2.41l1.32,0.54c0.28,0.11,0.58,0.16,0.88,0.16c0.7,0,1.36-0.29,1.81-0.78	C49.66,43.43,50.35,42.66,51,41.83z"/><linearGradient id="jYsH6Bv5nVhUgDQcd32ayb" x1="48" x2="48" y1="53.681" y2="12.426" gradientTransform="matrix(1 0 0 -1 0 64)" gradientUnits="userSpaceOnUse"><stop offset="0" stop-color="#6dc7ff"/><stop offset="1" stop-color="#e6abff"/></linearGradient><path fill="url(#jYsH6Bv5nVhUgDQcd32ayb)" d="M54,20.96v0.08c0,0.53-0.43,0.96-0.96,0.96H51v5.51c-0.85-0.92-1.67-1.55-2.12-1.87	c-0.42-0.31-0.92-0.47-1.45-0.47c-0.76,0-1.48,0.34-1.96,0.95L45,26.72V22h-2.04C42.43,22,42,21.57,42,21.04v-0.08	c0-0.07,0.01-0.13,0.02-0.19C42.11,20.33,42.5,20,42.96,20H47v-7l-0.92-1.63c-0.22-0.49,0.04-1.1,0.54-1.21	c0.92-0.21,1.84-0.21,2.76,0c0.5,0.11,0.76,0.72,0.54,1.21L49,13v7h4.04C53.57,20,54,20.43,54,20.96z"/><linearGradient id="jYsH6Bv5nVhUgDQcd32ayc" x1="31.999" x2="31.999" y1="50.125" y2="12.84" gradientTransform="matrix(1 0 0 -1 0 64)" gradientUnits="userSpaceOnUse"><stop offset="0" stop-color="#1a6dff"/><stop offset="1" stop-color="#c822ff"/></linearGradient><path fill="url(#jYsH6Bv5nVhUgDQcd32ayc)" d="M46.34,31v7c0,0,0.57,1,0.99,1C49.3,39,50.28,34,46.34,31z M46.34,31v7c0,0,0.57,1,0.99,1	C49.3,39,50.28,34,46.34,31z M31.56,31v7c0,0,0.57,1,0.99,1C34.52,39,35.5,34,31.56,31z M46.34,31v7c0,0,0.57,1,0.99,1	C49.3,39,50.28,34,46.34,31z M46.34,31v7c0,0,0.57,1,0.99,1C49.3,39,50.28,34,46.34,31z M31.56,31v7c0,0,0.57,1,0.99,1	C34.52,39,35.5,34,31.56,31z M63.28,37.34l-0.16-0.16v-4.36l0.06-0.06c0.96-0.97,0.96-2.55,0-3.52l-3.24-3.29	c-0.47-0.48-1.1-0.74-1.77-0.74c-0.68,0-1.31,0.26-1.78,0.74l-0.2,0.2l-0.11-0.12c-0.48-0.48-1.11-0.74-1.78-0.74	c-0.84,0-1.62,0.42-2.08,1.12l-0.93,1.41c-0.96-1.08-1.91-1.83-2.41-2.18c-0.42-0.31-0.92-0.47-1.45-0.47	c-0.76,0-1.48,0.34-1.96,0.95l-1.49,1.9c-0.19-0.36-0.46-0.68-0.82-0.92l-1.67-1.13l1.15-0.92c0.67-0.54,1.01-1.37,0.92-2.22	c-0.09-0.85-0.6-1.59-1.36-1.97l-2.7-1.35c-0.35-0.17-0.73-0.26-1.12-0.26c-1.22,0-2.26,0.88-2.46,2.09l-0.04,0.2l-1.43-1.45	c-0.55-0.57-1.33-0.89-2.12-0.89c-0.44,0-0.87,0.1-1.26,0.28c-1.59,0.76-2.76,1.35-3.54,1.8c-0.31-1.03-1.25-1.78-2.38-1.78	c-0.54,0-1.06,0.17-1.5,0.51l-1.19,0.9c-0.49-0.81-1.88-1.84-5.84-3.98C11.19,14,10.24,14,9.88,14c-0.8,0-1.64,0-8.85,6.19	C0.38,20.77,0,21.59,0,22.46v5.2c0,0.45,0.54,0.67,0.86,0.35l2.02-2.05l0.14,0.56c2.34,8.69-1.33,17.51-2.5,19.98	c-0.56,1.13-0.34,2.51,0.56,3.41l1.61,1.64c0.21,0.21,0.54,0.2,0.74-0.02l1.06-1.21c5.93-6.78,7.19-13.09,7.39-16.32h0.93v4.83	c0,0.54,0.18,1.07,0.49,1.49l2.44,3.31c0.48,0.62,1.2,0.98,1.98,0.98c0.89,0,1.71-0.48,2.14-1.23l0.89-1.5l2.01,2.04	c0.47,0.47,1.1,0.74,1.77,0.74c0.95,0,1.81-0.54,2.23-1.4l0.55-1.11l3.83,2.33c0.39,0.24,0.83,0.36,1.29,0.36	c0.78,0,1.52-0.37,1.97-0.97c0.66-0.86,1.23-1.66,1.73-2.42c0.05,0.07,0.11,0.14,0.17,0.21l2.22,2.26c0.47,0.47,1.1,0.74,1.77,0.74	c0.96,0,1.81-0.54,2.24-1.4l0.02-0.04l3.77,1.53c0.28,0.11,0.58,0.16,0.88,0.16c0.7,0,1.36-0.29,1.81-0.78	c0.69-0.74,1.42-1.56,2.1-2.44l2.19,2.23c0.47,0.47,1.1,0.74,1.77,0.74c0.96,0,1.81-0.54,2.24-1.4l0.09-0.18l0.83,0.84	c0.47,0.47,1.1,0.74,1.77,0.74c0.96,0,1.81-0.54,2.24-1.4l1.5-3.05C64.21,39.25,64.03,38.1,63.28,37.34z M20.45,37.72	c0.16,0.17,0.19,0.42,0.07,0.61l-2.38,4.03c-0.18,0.31-0.6,0.33-0.82,0.05l-2.41-3.28c-0.06-0.08-0.1-0.19-0.1-0.3V32H9.88	c0,0,0.99,8-6.89,17L2.5,48.51c-0.29-0.3-0.37-0.75-0.18-1.13C3.49,44.9,7.5,35.45,4.96,26l4.92-4c0,0-3.94-2-7.88,2v-1.54	c0-0.29,0.13-0.57,0.34-0.76C3.75,20.49,9.03,16,9.88,16c0.99,0,10.84,5.18,10.84,6c0,0.57-1.97,2-1.97,2v12L20.45,37.72z M26.48,39.32l-1.51,3.06c-0.15,0.3-0.55,0.37-0.79,0.13l-2.22-2.26c-0.15-0.15-0.19-0.38-0.09-0.57L22.69,38V26.41	c0-0.9-0.35-1.77-0.98-2.41l3.15-2.4c0.33-0.25,0.79-0.01,0.79,0.4v16l0.73,0.75C26.53,38.9,26.57,39.13,26.48,39.32z M33.56,25	c0-0.72,0.88-1.22,0.88-1.22l1.17-0.59l-0.37,2.19c-0.02,0.11-0.01,0.22-0.02,0.33c-0.05-0.05-0.1-0.09-0.16-0.13	c-0.42-0.3-0.92-0.46-1.44-0.46h-0.06V25z M32.81,42.65c-0.15,0.2-0.42,0.25-0.64,0.12l-4.16-2.53c-0.22-0.14-0.3-0.42-0.18-0.65	L28.6,38V26l-0.69-1.62c-0.19-0.46-0.01-1,0.41-1.25c0.96-0.57,2.68-1.4,3.61-1.84c0.37-0.18,0.81-0.09,1.1,0.2l0.5,0.51	c0,0-1.97,1-1.97,3s0,4,0,4l1.71-1.73c0.17-0.18,0.44-0.2,0.64-0.06c0.78,0.58,2.58,2.56,2.58,8.79	C36.49,37.68,33.7,41.49,32.81,42.65z M37.21,25.71l0.68-4.04c0.05-0.33,0.41-0.52,0.72-0.37l2.69,1.35	c0.33,0.16,0.37,0.61,0.09,0.84l-3.37,2.69C37.66,26.47,37.14,26.16,37.21,25.71z M42.24,39.32l-1.51,3.06	c-0.15,0.3-0.55,0.37-0.78,0.13l-2.23-2.26c-0.15-0.15-0.18-0.38-0.09-0.57L38.46,38v-6.59l-0.79-1.13	c-0.12-0.17-0.12-0.39-0.01-0.57l1.51-2.29c0.15-0.23,0.46-0.3,0.68-0.14l2.19,1.48c0.21,0.14,0.28,0.41,0.17,0.63l-0.8,1.69V38	l0.74,0.75C42.3,38.9,42.34,39.13,42.24,39.32z M47.55,42.76c-0.13,0.15-0.34,0.19-0.53,0.12l-4.13-1.68	c-0.26-0.11-0.38-0.42-0.25-0.69L43.38,39v-6.82c0-0.12,0.04-0.23,0.11-0.32l3.55-4.5c0.17-0.21,0.46-0.25,0.67-0.1	c1.16,0.83,4.54,3.6,4.54,7.74C52.25,37.61,48.53,41.72,47.55,42.76z M61.95,39.32l-1.51,3.06c-0.15,0.3-0.55,0.37-0.79,0.13	L58.17,41v-9l-0.64-0.65c-0.19-0.19-0.51-0.19-0.7,0L56.19,32v6l0.74,0.75c0.15,0.15,0.19,0.38,0.09,0.57l-1.51,3.06	c-0.15,0.3-0.55,0.37-0.78,0.13l-2.23-2.26c-0.15-0.15-0.18-0.38-0.09-0.57L53.24,38v-7l-0.7-0.71c-0.17-0.17-0.19-0.43-0.06-0.63	l1.41-2.15c0.17-0.27,0.54-0.3,0.76-0.08L56.19,29l1.63-1.65c0.19-0.19,0.5-0.19,0.69,0l3.25,3.3c0.19,0.19,0.19,0.51,0,0.7	L61.12,32v6l0.74,0.75C62.01,38.9,62.04,39.13,61.95,39.32z M46.34,31v7c0,0,0.57,1,0.99,1C49.3,39,50.28,34,46.34,31z M31.56,31v7	c0,0,0.57,1,0.99,1C34.52,39,35.5,34,31.56,31z M10.87,27h3.94v-3l-1.97-2C10.56,23.63,10.87,27,10.87,27z M31.56,31v7	c0,0,0.57,1,0.99,1C34.52,39,35.5,34,31.56,31z M46.34,31v7c0,0,0.57,1,0.99,1C49.3,39,50.28,34,46.34,31z M46.34,31v7	c0,0,0.57,1,0.99,1C49.3,39,50.28,34,46.34,31z M31.56,31v7c0,0,0.57,1,0.99,1C34.52,39,35.5,34,31.56,31z M46.34,31v7	c0,0,0.57,1,0.99,1C49.3,39,50.28,34,46.34,31z M46.34,31v7c0,0,0.57,1,0.99,1C49.3,39,50.28,34,46.34,31z"/></svg>